<?xml version="1.0" encoding="UTF-8" standalone="no"?>
<!DOCTYPE svg PUBLIC "-//W3C//DTD SVG 1.1//EN" "http://www.w3.org/Graphics/SVG/1.1/DTD/svg11.dtd">
<svg width="100%" height="100%" viewBox="0 0 502 373" version="1.1" xmlns="http://www.w3.org/2000/svg" xmlns:xlink="http://www.w3.org/1999/xlink" xml:space="preserve" xmlns:serif="http://www.serif.com/" style="fill-rule:evenodd;clip-rule:evenodd;stroke-linejoin:round;stroke-miterlimit:2;">
    <g id="Artboard1" transform="matrix(1,0,0,1,0,-224.229)">
        <rect x="0" y="224.229" width="502" height="372.771" style="fill:none;"/>
        <clipPath id="_clip1">
            <rect x="0" y="224.229" width="502" height="372.771"/>
        </clipPath>
        <g clip-path="url(#_clip1)">
            <g transform="matrix(1,0,0,1,-46.0185,-98.0565)">
                <g transform="matrix(1.82296,0,0,1.9867,-210.108,-353.544)">
                    <path d="M415.876,354.213L415.876,514.003C415.876,521.687 409.077,527.925 400.704,527.925L155.672,527.925C147.298,527.925 140.5,521.687 140.5,514.003L140.5,354.213C140.5,346.53 147.298,340.292 155.672,340.292L400.704,340.292C409.077,340.292 415.876,346.53 415.876,354.213Z" style="fill:rgb(249,113,51);"/>
                </g>
                <g transform="matrix(1,0,0,1,-4.12893,134.698)">
                    <path d="M200.24,252.49L252.34,252.49L252.34,272.8C253.49,273.33 253.83,272.46 254.27,271.92C256.232,269.545 258.329,267.284 260.55,265.15C270.236,255.721 282.59,249.492 295.93,247.31C311.792,244.517 328.111,245.896 343.28,251.31C353.967,255.109 363.649,261.292 371.59,269.39C385.501,283.443 395.071,301.212 399.15,320.56C401.482,331.281 402.416,342.259 401.93,353.22C401.16,372.14 396.12,389.77 385.65,405.69C377.99,417.34 368.58,427.25 356.65,434.57C348.02,439.786 338.483,443.324 328.54,445C320.236,446.476 311.773,446.853 303.37,446.12C285.31,444.55 269.63,437.81 257.02,424.51C256.71,424.18 256.5,423.69 255.73,423.65L255.73,502.5L200.24,502.5L200.24,252.49ZM299.58,298.37C296.462,298.425 293.352,298.723 290.28,299.26C277.28,301.79 267.55,309.03 260.57,320.07C253.68,330.95 252.16,342.96 254.15,355.44C257.7,377.73 279.34,399.66 310.75,392.87C324.07,390 333.75,381.95 340.41,370.35C346.53,359.74 347.63,348.22 345.57,336.35C342.35,317.77 326.26,298.17 299.58,298.37Z" style="fill:rgb(1,1,1);fill-rule:nonzero;"/>
                </g>
            </g>
            <g transform="matrix(1.25937,0,0,1.19077,164.288,160.966)">
                <rect x="109.636" y="276.543" width="40.359" height="40.359" style="fill:rgb(1,1,1);"/>
            </g>
            <g transform="matrix(1,0,0,1,0,0.2285)">
                <path d="M429.018,224.229L475.906,224.229C490.308,224.229 502,235.921 502,250.323L502,570.906C502,585.308 490.308,597 475.906,597L429.018,597L429.018,224.229Z" style="fill:rgb(255,215,83);"/>
            </g>
            <g transform="matrix(1,0,0,1,0,0.2285)">
                <path d="M72.625,597L26.094,597C11.692,597 0,585.308 0,570.906L0,250.323C0,235.921 11.692,224.229 26.094,224.229L72.625,224.229L72.625,597Z" style="fill:rgb(254,52,126);"/>
            </g>
        </g>
    </g>
</svg>
